<svg xmlns="http://www.w3.org/2000/svg" width="16.844" height="16.844" viewBox="0 0 16.844 16.844">
  <g id="instagram" transform="translate(0.7 0.7)">
    <path id="Path_236" data-name="Path 236" d="M11.263,0H4.18A4.185,4.185,0,0,0,0,4.181v7.083A4.185,4.185,0,0,0,4.18,15.444h7.083a4.185,4.185,0,0,0,4.181-4.181V4.181A4.185,4.185,0,0,0,11.263,0Zm3.275,11.264a3.279,3.279,0,0,1-3.275,3.275H4.18A3.279,3.279,0,0,1,.9,11.264V4.181A3.279,3.279,0,0,1,4.18.905h7.083a3.279,3.279,0,0,1,3.275,3.275Zm0,0" transform="translate(0.001 0)" fill="#fff" stroke="#fff" stroke-width="1.4"/>
    <path id="Path_237" data-name="Path 237" d="M120.227,116a4.223,4.223,0,1,0,4.223,4.223A4.228,4.228,0,0,0,120.227,116Zm0,7.541a3.318,3.318,0,1,1,3.318-3.318A3.321,3.321,0,0,1,120.227,123.545Zm0,0" transform="translate(-112.505 -112.505)" fill="#fff" stroke="#fff" stroke-width="1.4"/>
    <path id="Path_238" data-name="Path 238" d="M359.225,66.285a1.248,1.248,0,1,0,1.248,1.248A1.249,1.249,0,0,0,359.225,66.285Zm0,1.59a.342.342,0,1,1,.343-.342A.343.343,0,0,1,359.225,67.875Zm0,0" transform="translate(-347.178 -64.286)" fill="#fff" stroke="#fff" stroke-width="1.4"/>
  </g>
</svg>
