<svg id="pinterest" xmlns="http://www.w3.org/2000/svg" width="15.491" height="19.067" viewBox="0 0 15.491 19.067">
  <g id="Group_53" data-name="Group 53" transform="translate(0)">
    <path id="Path_239" data-name="Path 239" d="M56.009,0c-5.226,0-8,3.349-8,7,0,1.693.946,3.805,2.461,4.475.23.1.355.06.406-.154.045-.162.244-.943.341-1.311a.337.337,0,0,0-.081-.331,4.342,4.342,0,0,1-.9-2.635,5.136,5.136,0,0,1,5.47-5.02c2.979,0,5.064,1.935,5.064,4.7,0,3.128-1.655,5.292-3.806,5.292a1.7,1.7,0,0,1-1.8-2.09,22.657,22.657,0,0,0,1.006-3.849,1.478,1.478,0,0,0-1.53-1.627c-1.212,0-2.2,1.2-2.2,2.811A4.008,4.008,0,0,0,52.8,8.981s-1.2,4.843-1.422,5.748a12.862,12.862,0,0,0,.088,4.225.126.126,0,0,0,.229.058,15.015,15.015,0,0,0,1.974-3.717c.148-.545.754-2.753.754-2.753a3.294,3.294,0,0,0,2.779,1.325c3.651,0,6.29-3.209,6.29-7.192C63.482,2.857,60.215,0,56.009,0Z" transform="translate(-48.004)" fill="#616161"/>
  </g>
</svg>
